<svg width="30" height="30" viewBox="0 0 30 30" fill="none" xmlns="http://www.w3.org/2000/svg">
<g clip-path="url(#clip0_389_1187)">
<path d="M24.1452 7.03414V6.78414H23.8952H6.98394H6.73394V7.03414V23.9417V24.1917H6.98394H17.8554H18.1054V23.9417V18.1533H23.8952H24.1452V17.9033V7.03414ZM6.98394 4.86877H23.8952C25.0859 4.86877 26.061 5.84381 26.061 7.03414V19.0074L18.9598 26.1071H6.98394C5.79322 26.1071 4.81805 25.1321 4.81805 23.9417V7.03414C4.81805 5.84381 5.79322 4.86877 6.98394 4.86877ZM15.1895 17.6533H9.64983V15.7379H15.1895V17.6533ZM21.2293 12.8226H9.64983V10.9072H21.2293V12.8226Z" fill="#BDBDBD" stroke="white" stroke-width="0.5"/>
</g>
<defs>
<clipPath id="clip0_389_1187">
<rect width="28.9907" height="28.9844" fill="white" transform="translate(0.944214 0.995728)"/>
</clipPath>
</defs>
</svg>
