<svg width="24" height="24" viewBox="0 0 24 24" fill="none" xmlns="http://www.w3.org/2000/svg">
<circle cx="12" cy="12" r="10" fill="white" stroke="#E3E3E3"/>
<path d="M16.6117 9.44735C16.5941 9.45927 16.5745 9.47245 16.555 9.48575C16.0208 9.84988 15.6209 10.3234 15.3945 10.9356C15.2604 11.2985 15.2153 11.6746 15.2388 12.0607C15.2613 12.4304 15.3441 12.7838 15.5038 13.1182C15.7226 13.5771 16.0503 13.9414 16.4637 14.2298C16.6057 14.3299 16.757 14.4159 16.9154 14.4868C16.9272 14.4921 16.9386 14.4984 16.9558 14.5071C16.9435 14.5455 16.9323 14.5828 16.9197 14.6196C16.7084 15.2424 16.4133 15.8332 16.0425 16.3754C15.8685 16.6299 15.6929 16.8834 15.4938 17.1193C15.3601 17.2778 15.2161 17.4257 15.0546 17.5562C14.6089 17.9166 14.109 18.0114 13.5633 17.8541C13.3975 17.8063 13.2378 17.7361 13.0779 17.6696C12.8771 17.586 12.6766 17.5034 12.4626 17.4593C12.2265 17.4106 11.9885 17.4026 11.7488 17.421C11.418 17.4464 11.1108 17.5541 10.8099 17.6859C10.6349 17.7625 10.4589 17.8369 10.2725 17.8815C10.051 17.9345 9.82815 17.9622 9.60115 17.9174C9.44889 17.8874 9.30704 17.8306 9.17309 17.7535C8.92415 17.6107 8.71763 17.417 8.52704 17.2049C8.28812 16.9391 8.08166 16.6482 7.8785 16.3547C7.32195 15.5505 6.94717 14.6648 6.70884 13.7179C6.62277 13.3758 6.56165 13.0279 6.52596 12.6769C6.48809 12.3052 6.48065 11.9325 6.51279 11.56C6.56475 10.9535 6.71081 10.3728 7.01467 9.84147C7.45617 9.06886 8.09648 8.54359 8.95517 8.29962C9.24929 8.21582 9.55531 8.18225 9.86049 8.20031C10.0828 8.21356 10.2991 8.264 10.5086 8.33829C10.7441 8.4219 10.9761 8.51631 11.2109 8.60139C11.3426 8.64905 11.4769 8.69056 11.6117 8.7291C11.7546 8.76988 11.8996 8.76458 12.0398 8.71837C12.2146 8.66084 12.3874 8.59702 12.5606 8.53452C12.7813 8.45507 12.9995 8.36748 13.2223 8.29466C13.5925 8.17246 13.9839 8.12928 14.3715 8.16787C14.7981 8.20972 15.2033 8.31849 15.5837 8.51757C15.986 8.72819 16.319 9.01949 16.5825 9.39148C16.5914 9.40399 16.6001 9.41677 16.6082 9.42981C16.6106 9.43286 16.6101 9.43782 16.6117 9.44735Z" fill="black"/>
<path d="M14.2812 5.05021C14.2854 5.08676 14.2908 5.1192 14.2925 5.15184C14.3101 5.48147 14.2679 5.80343 14.1614 6.11552C13.9536 6.7252 13.6032 7.23101 13.0735 7.60295C12.8008 7.79435 12.5029 7.9298 12.1746 7.99283C12.0218 8.02303 11.8656 8.03241 11.7103 8.0207C11.7068 8.00084 11.7024 7.98257 11.7004 7.9637C11.6699 7.68564 11.6996 7.41168 11.7824 7.14673C12.1132 6.08745 12.8158 5.40984 13.8766 5.10821C13.9835 5.07782 14.0963 5.06848 14.2066 5.05068C14.228 5.04743 14.2502 5.05021 14.2812 5.05021Z" fill="black"/>
</svg>
