<svg width="100" height="19" viewBox="0 0 100 19" fill="none" xmlns="http://www.w3.org/2000/svg">
<g clip-path="url(#clip0_543_2451)">
<path d="M6.25973 0L3.87134 11.1458C3.24693 14.0806 4.43331 15.4074 6.77487 15.4074C9.27253 15.4074 10.2248 14.2679 10.8492 11.4268L13.2532 0H16.9684L14.4708 11.7234C13.5029 16.0943 11.4736 18.3266 6.43144 18.3266C2.20103 18.3266 -0.905432 16.3441 0.234125 10.9116L2.57568 0H6.25973Z" fill="#FD5422"/>
<path d="M16.4533 18.0612L20.2935 0H25.0546C26.3191 4.2148 28.5357 11.4892 28.8948 13.7996H28.9416C29.207 11.7234 29.9094 8.52326 30.5339 5.55729L31.7202 0H35.1857L31.3612 18.0612H26.8498C25.7415 14.2523 23.275 5.65095 22.9628 3.60599H22.916C22.5726 5.88511 21.8701 9.11645 21.1832 12.3478L19.9813 18.0456H16.5001L16.4533 18.0612Z" fill="#FD5422"/>
<path d="M42.4445 0L38.62 18.0612H34.9359L38.7605 0H42.4445Z" fill="#FD5422"/>
<path d="M67.0153 10.1623H58.8823L57.852 15.0328H67.109L66.0318 18.0612H53.5748L57.4149 0H69.5442L68.8885 3.02841H60.3965L59.5223 7.13394H67.6553L66.9997 10.1623H67.0153Z" fill="#FD5422"/>
<path d="M73.6497 13.784L71.4174 18.0612H67.5305L77.2557 0H81.9232L84.2648 18.0612H80.5495L79.9875 13.784H73.6341H73.6497ZM79.8626 10.7555C79.4412 7.02466 79.1758 4.46456 79.0977 2.82548H79.0665C78.2392 4.62067 76.7718 7.5242 75.0859 10.7555H79.8626Z" fill="#FD5422"/>
<path d="M90.3997 3.02841H85.1234L85.779 0H100L99.3444 3.02841H94.0837L90.9148 18.0612H87.2308L90.4153 3.02841H90.3997Z" fill="#FD5422"/>
<path d="M49.7658 7.14948H44.3646L43.6622 10.1779H44.1773H48.7199H49.7658H60.7867L61.6921 7.14948H49.7658Z" fill="#FD5422"/>
</g>
<defs>
<clipPath id="clip0_543_2451">
<rect width="100" height="18.3266" fill="white"/>
</clipPath>
</defs>
</svg>
