<svg width="24" height="22" viewBox="0 0 24 22" fill="none" xmlns="http://www.w3.org/2000/svg">
<path d="M0.919128 6.45809C0.919128 4.60463 0.919128 3.67789 1.26331 2.9629C1.60522 2.25265 2.17825 1.67962 2.8885 1.33772C3.60349 0.99353 4.53022 0.99353 6.38369 0.99353H17.3175C19.171 0.99353 20.0977 0.99353 20.8127 1.33772C21.523 1.67962 22.096 2.25265 22.4379 2.9629C22.7821 3.67789 22.7821 4.60463 22.7821 6.45809V7.36866C22.7821 7.87177 22.3742 8.27962 21.8711 8.27962H21.567C20.2256 8.27962 19.1383 9.36698 19.1383 10.7083V10.7083C19.1383 12.0496 20.2256 13.137 21.567 13.137H21.8711C22.3742 13.137 22.7821 13.5449 22.7821 14.048V14.9585C22.7821 16.812 22.7821 17.7387 22.4379 18.4537C22.096 19.164 21.523 19.737 20.8127 20.0789C20.0977 20.4231 19.171 20.4231 17.3175 20.4231H6.38369C4.53022 20.4231 3.60349 20.4231 2.8885 20.0789C2.17825 19.737 1.60522 19.164 1.26331 18.4537C0.919128 17.7387 0.919128 16.812 0.919128 14.9585V14.048C0.919128 13.5449 1.32698 13.137 1.83009 13.137H2.13426C3.47559 13.137 4.56295 12.0496 4.56295 10.7083V10.7083C4.56295 9.36698 3.47559 8.27962 2.13426 8.27962H1.83008C1.32698 8.27962 0.919128 7.87177 0.919128 7.36866V6.45809Z" stroke="#BDBDBD" stroke-width="1.4"/>
<path d="M11.2004 8.78506C11.447 8.14715 11.5703 7.82819 11.7706 7.78399C11.8233 7.77236 11.8778 7.77236 11.9304 7.78399C12.1308 7.82819 12.2541 8.14715 12.5007 8.78506C12.641 9.14783 12.7111 9.32922 12.8423 9.45259C12.8791 9.48719 12.9191 9.51801 12.9616 9.54461C13.1133 9.63945 13.3026 9.65704 13.6812 9.69223C14.3222 9.75179 14.6427 9.78157 14.7406 9.97116C14.7608 10.0104 14.7746 10.0529 14.7813 10.0969C14.8138 10.3094 14.5782 10.5318 14.107 10.9766L13.9761 11.1001C13.7558 11.308 13.6457 11.412 13.5819 11.5418C13.5437 11.6196 13.5181 11.7034 13.5061 11.7899C13.4861 11.934 13.5183 12.0849 13.5828 12.3866L13.6059 12.4943C13.7216 13.0354 13.7794 13.3059 13.7072 13.4388C13.6424 13.5583 13.5229 13.6347 13.3909 13.6413C13.244 13.6485 13.0369 13.4735 12.6229 13.1235C12.3501 12.8928 12.2137 12.7775 12.0623 12.7325C11.9239 12.6913 11.7772 12.6913 11.6388 12.7325C11.4874 12.7775 11.351 12.8928 11.0782 13.1235C10.6641 13.4735 10.4571 13.6485 10.3102 13.6413C10.1782 13.6347 10.0587 13.5583 9.99388 13.4388C9.92167 13.3059 9.97951 13.0354 10.0952 12.4944L10.1183 12.3866C10.1828 12.0849 10.215 11.934 10.195 11.7899C10.183 11.7034 10.1574 11.6196 10.1192 11.5418C10.0554 11.412 9.94529 11.308 9.72499 11.1001L9.59413 10.9766C9.12292 10.5318 8.88732 10.3094 8.91976 10.0969C8.92648 10.0529 8.94026 10.0104 8.96053 9.97116C9.0584 9.78157 9.37889 9.75179 10.0199 9.69223C10.3985 9.65704 10.5878 9.63945 10.7395 9.54461C10.782 9.51801 10.822 9.48719 10.8588 9.45259C10.99 9.32922 11.0601 9.14783 11.2004 8.78506Z" stroke="#BDBDBD" stroke-width="1.2"/>
</svg>
