<svg width="114" height="114" viewBox="0 0 114 114" fill="none" xmlns="http://www.w3.org/2000/svg">
<circle cx="57" cy="57" r="56.1839" fill="#F3F3F3" stroke="#BDBDBD" stroke-width="1.63227"/>
<circle cx="57" cy="57" r="48.4131" fill="#F3F3F3" stroke="#BDBDBD" stroke-width="0.422822"/>
<circle cx="56.9451" cy="56.9451" r="47.7535" fill="#F3F3F3" stroke="#BDBDBD" stroke-width="1.63227"/>
<path d="M39.4529 88.725C39.5234 85.6243 41.4824 79.5075 48.755 79.8457C56.0275 80.184 57.2819 85.0605 57 87.4565" stroke="#BDBDBD" stroke-width="1.63227" stroke-linecap="round"/>
<path d="M50.5663 15.9428C51.8773 18.7536 52.832 25.1052 46.1628 28.025C39.4936 30.9449 36.2079 27.1293 35.3987 24.8566" stroke="#BDBDBD" stroke-width="1.63227" stroke-linecap="round"/>
<circle cx="37.1273" cy="53.1944" r="19.4466" fill="white" stroke="#BDBDBD" stroke-width="0.852099"/>
<circle cx="76.8725" cy="53.1944" r="19.4466" fill="white" stroke="#BDBDBD" stroke-width="0.852099"/>
<circle cx="39.6642" cy="48.121" r="11.8358" fill="#BDBDBD" stroke="#BDBDBD" stroke-width="0.852099"/>
<circle cx="80.2551" cy="48.121" r="11.8358" fill="#BDBDBD" stroke="#BDBDBD" stroke-width="0.852099"/>
<path d="M38.8041 45.6179C39.6655 44.7556 40.8584 44.263 42.601 43.8262L42.6773 44.1307L42.5983 43.8269C42.6064 43.8248 42.6136 43.82 42.6186 43.8135L42.8669 44.0055L42.6186 43.8135C42.6237 43.807 42.6264 43.7989 42.6264 43.7907C42.6264 43.7825 42.6237 43.7744 42.6186 43.7679C42.6137 43.7615 42.6068 43.7569 42.5989 43.7547C42.5987 43.7546 42.5985 43.7545 42.5983 43.7545L42.6773 43.4507C39.2183 42.5838 38.1862 41.5469 37.3187 38.0907L38.8041 45.6179ZM38.8041 45.6179C37.9432 46.4797 37.4517 47.6724 37.0148 49.4123M38.8041 45.6179L37.0148 49.4123M37.0148 49.4123C37.0126 49.42 37.008 49.4268 37.0016 49.4318C36.995 49.4369 36.9869 49.4396 36.9784 49.4396C36.97 49.4396 36.9619 49.4369 36.9553 49.4318C36.9487 49.4267 36.944 49.4196 36.9419 49.4116L36.6382 49.4907M37.0148 49.4123L31.2739 44.1307C34.7329 44.9976 35.7706 46.0344 36.6382 49.4907M36.6382 49.4907L36.9426 49.4143C36.5055 47.6731 36.0125 46.4798 35.1497 45.6177C34.2872 44.7559 33.0937 44.2633 31.3522 43.8267M36.6382 49.4907C36.6578 49.566 36.7018 49.6326 36.7634 49.6802L31.3522 43.8267M31.3522 43.8267C31.3444 43.8245 31.3375 43.8199 31.3325 43.8135L31.0862 44.0041L31.3325 43.8135C31.3275 43.807 31.3248 43.7989 31.3248 43.7907C31.3248 43.7825 31.3275 43.7744 31.3325 43.7679C31.3376 43.7613 31.3448 43.7566 31.3529 43.7545L31.2739 43.4507C34.7329 42.5838 35.7706 41.5469 36.6382 38.0907M31.3522 43.8267L36.9421 38.1691C36.942 38.1694 36.942 38.1696 36.9419 38.1698L36.6382 38.0907M36.6382 38.0907C36.6578 38.0154 36.7018 37.9488 36.7634 37.9012L36.6382 38.0907Z" fill="white" stroke="#BDBDBD" stroke-width="0.627717"/>
<path d="M79.7049 45.6179C80.5663 44.7556 81.7591 44.263 83.5017 43.8262L83.578 44.1307L83.499 43.8269C83.5071 43.8248 83.5143 43.82 83.5194 43.8135L83.7676 44.0055L83.5194 43.8135C83.5244 43.807 83.5272 43.7989 83.5272 43.7907C83.5272 43.7825 83.5244 43.7744 83.5194 43.7679C83.5144 43.7615 83.5075 43.7569 83.4997 43.7547C83.4995 43.7546 83.4992 43.7545 83.499 43.7545L83.578 43.4507C80.119 42.5838 79.087 41.5469 78.2194 38.0907L79.7049 45.6179ZM79.7049 45.6179C78.8439 46.4797 78.3524 47.6724 77.9155 49.4123M79.7049 45.6179L77.9155 49.4123M77.9155 49.4123C77.9133 49.42 77.9087 49.4268 77.9023 49.4318C77.8957 49.4369 77.8876 49.4396 77.8792 49.4396C77.8707 49.4396 77.8626 49.4369 77.856 49.4318C77.8494 49.4267 77.8447 49.4196 77.8426 49.4116L77.5389 49.4907M77.9155 49.4123L72.1746 44.1307C75.6336 44.9976 76.6713 46.0344 77.5389 49.4907M77.5389 49.4907L77.8433 49.4143C77.4063 47.6731 76.9132 46.4798 76.0504 45.6177C75.188 44.7559 73.9944 44.2633 72.253 43.8267M77.5389 49.4907C77.5585 49.566 77.6026 49.6326 77.6641 49.6802L72.253 43.8267M72.253 43.8267C72.2451 43.8245 72.2382 43.8199 72.2333 43.8135L71.987 44.0041L72.2333 43.8135C72.2282 43.807 72.2255 43.7989 72.2255 43.7907C72.2255 43.7825 72.2282 43.7744 72.2333 43.7679C72.2384 43.7613 72.2455 43.7566 72.2536 43.7545L72.1746 43.4507C75.6336 42.5838 76.6713 41.5469 77.5389 38.0907M72.253 43.8267L77.8428 38.1691C77.8428 38.1694 77.8427 38.1696 77.8426 38.1698L77.5389 38.0907M77.5389 38.0907C77.5585 38.0154 77.6026 37.9488 77.6641 37.9012L77.5389 38.0907Z" fill="white" stroke="#BDBDBD" stroke-width="0.627717"/>
<path d="M42.8719 52.2438C43.241 51.8743 43.7522 51.6632 44.4991 51.476L44.5318 51.6065L44.4979 51.4763C44.5014 51.4754 44.5045 51.4733 44.5066 51.4705C44.5088 51.4677 44.51 51.4643 44.51 51.4608C44.51 51.4572 44.5088 51.4538 44.5066 51.451C44.5045 51.4483 44.5016 51.4463 44.4982 51.4453C44.4981 51.4453 44.498 51.4453 44.4979 51.4452L44.5318 51.3151C43.0493 50.9435 42.607 50.4992 42.2352 49.0179L42.8719 52.2438ZM42.8719 52.2438C42.5029 52.6132 42.2922 53.1243 42.105 53.87M42.8719 52.2438L42.105 53.87M42.105 53.87C42.1041 53.8733 42.1021 53.8762 42.0993 53.8784C42.0965 53.8805 42.093 53.8817 42.0894 53.8817C42.0858 53.8817 42.0823 53.8805 42.0795 53.8784C42.0766 53.8762 42.0746 53.8731 42.0738 53.8697L41.9436 53.9036M42.105 53.87L39.6446 51.6065C41.127 51.978 41.5718 52.4224 41.9436 53.9036M41.9436 53.9036L42.0741 53.8709C41.8867 53.1246 41.6754 52.6132 41.3056 52.2437C40.936 51.8744 40.4245 51.6633 39.6782 51.4762L41.9973 53.9848C41.9709 53.9644 41.952 53.9359 41.9436 53.9036ZM42.0738 49.0518C42.0738 49.0517 42.0738 49.0516 42.0738 49.0515C42.0739 49.0512 42.074 49.0509 42.0741 49.0506L41.9436 49.0179L42.0738 49.0518Z" fill="white" stroke="#BDBDBD" stroke-width="0.269021"/>
<path d="M83.7726 52.2438C84.1418 51.8743 84.653 51.6632 85.3998 51.476L85.4325 51.6065L85.3986 51.4763C85.4021 51.4754 85.4052 51.4733 85.4074 51.4705C85.4095 51.4677 85.4107 51.4643 85.4107 51.4608C85.4107 51.4572 85.4095 51.4538 85.4074 51.451C85.4053 51.4483 85.4023 51.4463 85.3989 51.4453C85.3988 51.4453 85.3987 51.4453 85.3986 51.4452L85.4325 51.3151C83.9501 50.9435 83.5078 50.4992 83.136 49.0179L83.7726 52.2438ZM83.7726 52.2438C83.4036 52.6132 83.193 53.1243 83.0057 53.87M83.7726 52.2438L83.0057 53.87M83.0057 53.87C83.0048 53.8733 83.0028 53.8762 83.0001 53.8784C82.9972 53.8805 82.9938 53.8817 82.9901 53.8817C82.9865 53.8817 82.983 53.8805 82.9802 53.8784C82.9774 53.8762 82.9754 53.8731 82.9745 53.8697L82.8443 53.9036M83.0057 53.87L80.5453 51.6065C82.0278 51.978 82.4725 52.4224 82.8443 53.9036M82.8443 53.9036L82.9748 53.8709C82.7875 53.1246 82.5762 52.6132 82.2064 52.2437C81.8368 51.8744 81.3253 51.6633 80.5789 51.4762L82.898 53.9848C82.8716 53.9644 82.8527 53.9359 82.8443 53.9036ZM82.9745 49.0518C82.9745 49.0517 82.9745 49.0516 82.9746 49.0515C82.9746 49.0512 82.9747 49.0509 82.9748 49.0506L82.8443 49.0179L82.9745 49.0518Z" fill="white" stroke="#BDBDBD" stroke-width="0.269021"/>
<circle cx="36.7135" cy="53.5545" r="19.0565" fill="white" stroke="#BDBDBD" stroke-width="1.63227"/>
<circle cx="76.4588" cy="53.5545" r="19.0565" fill="white" stroke="#BDBDBD" stroke-width="1.63227"/>
<circle cx="39.2505" cy="48.4808" r="12.2618" fill="#BDBDBD"/>
<circle cx="79.8414" cy="48.4808" r="12.2618" fill="#BDBDBD"/>
<path d="M42.2636 44.4905C38.8045 45.3574 37.7725 46.3943 36.9049 49.8506C36.8853 49.9258 36.8413 49.9925 36.7797 50.04C36.7181 50.0876 36.6425 50.1134 36.5647 50.1134C36.4869 50.1134 36.4113 50.0876 36.3497 50.04C36.2881 49.9925 36.2441 49.9258 36.2245 49.8506C35.3569 46.3943 34.3192 45.3574 30.8602 44.4905C30.7849 44.4709 30.7182 44.4269 30.6706 44.3654C30.623 44.3039 30.5972 44.2283 30.5972 44.1506C30.5972 44.0728 30.623 43.9972 30.6706 43.9357C30.7182 43.8742 30.7849 43.8302 30.8602 43.8106C34.3192 42.9437 35.3569 41.9068 36.2245 38.4505C36.2441 38.3753 36.2881 38.3087 36.3497 38.2611C36.4113 38.2135 36.4869 38.1877 36.5647 38.1877C36.6425 38.1877 36.7181 38.2135 36.7797 38.2611C36.8413 38.3087 36.8853 38.3753 36.9049 38.4505C37.7725 41.9068 38.8045 42.9437 42.2636 43.8106C42.3389 43.8302 42.4056 43.8742 42.4531 43.9357C42.5007 43.9972 42.5266 44.0728 42.5266 44.1506C42.5266 44.2283 42.5007 44.3039 42.4531 44.3654C42.4056 44.4269 42.3389 44.4709 42.2636 44.4905Z" fill="white"/>
<path d="M83.1643 44.4905C79.7053 45.3574 78.6733 46.3943 77.8057 49.8506C77.7861 49.9258 77.742 49.9925 77.6805 50.04C77.6189 50.0876 77.5433 50.1134 77.4655 50.1134C77.3876 50.1134 77.312 50.0876 77.2504 50.04C77.1889 49.9925 77.1448 49.9258 77.1252 49.8506C76.2576 46.3943 75.2199 45.3574 71.7609 44.4905C71.6856 44.4709 71.6189 44.4269 71.5713 44.3654C71.5237 44.3039 71.4979 44.2283 71.4979 44.1506C71.4979 44.0728 71.5237 43.9972 71.5713 43.9357C71.6189 43.8742 71.6856 43.8302 71.7609 43.8106C75.2199 42.9437 76.2576 41.9068 77.1252 38.4505C77.1448 38.3753 77.1889 38.3087 77.2504 38.2611C77.312 38.2135 77.3876 38.1877 77.4655 38.1877C77.5433 38.1877 77.6189 38.2135 77.6805 38.2611C77.742 38.3087 77.7861 38.3753 77.8057 38.4505C78.6733 41.9068 79.7053 42.9437 83.1643 43.8106C83.2396 43.8302 83.3063 43.8742 83.3539 43.9357C83.4015 43.9972 83.4273 44.0728 83.4273 44.1506C83.4273 44.2283 83.4015 44.3039 83.3539 44.3654C83.3063 44.4269 83.2396 44.4709 83.1643 44.4905Z" fill="white"/>
<path d="M44.118 51.9663C42.6356 52.3379 42.1933 52.7822 41.8215 54.2635C41.8131 54.2957 41.7942 54.3243 41.7678 54.3447C41.7414 54.3651 41.709 54.3761 41.6757 54.3761C41.6423 54.3761 41.6099 54.3651 41.5835 54.3447C41.5571 54.3243 41.5383 54.2957 41.5299 54.2635C41.158 52.7822 40.7133 52.3379 39.2309 51.9663C39.1986 51.9579 39.17 51.9391 39.1496 51.9127C39.1292 51.8863 39.1182 51.854 39.1182 51.8206C39.1182 51.7873 39.1292 51.7549 39.1496 51.7286C39.17 51.7022 39.1986 51.6833 39.2309 51.6749C40.7133 51.3034 41.158 50.859 41.5299 49.3778C41.5383 49.3455 41.5571 49.317 41.5835 49.2966C41.6099 49.2762 41.6423 49.2651 41.6757 49.2651C41.709 49.2651 41.7414 49.2762 41.7678 49.2966C41.7942 49.317 41.8131 49.3455 41.8215 49.3778C42.1933 50.859 42.6356 51.3034 44.118 51.6749C44.1503 51.6833 44.1789 51.7022 44.1993 51.7286C44.2197 51.7549 44.2308 51.7873 44.2308 51.8206C44.2308 51.854 44.2197 51.8863 44.1993 51.9127C44.1789 51.9391 44.1503 51.9579 44.118 51.9663Z" fill="white"/>
<path d="M85.0188 51.9663C83.5364 52.3379 83.0941 52.7822 82.7222 54.2635C82.7138 54.2957 82.695 54.3243 82.6686 54.3447C82.6422 54.3651 82.6098 54.3761 82.5764 54.3761C82.5431 54.3761 82.5107 54.3651 82.4843 54.3447C82.4579 54.3243 82.439 54.2957 82.4306 54.2635C82.0588 52.7822 81.6141 52.3379 80.1316 51.9663C80.0993 51.9579 80.0708 51.9391 80.0504 51.9127C80.03 51.8863 80.0189 51.854 80.0189 51.8206C80.0189 51.7873 80.03 51.7549 80.0504 51.7286C80.0708 51.7022 80.0993 51.6833 80.1316 51.6749C81.6141 51.3034 82.0588 50.859 82.4306 49.3778C82.439 49.3455 82.4579 49.317 82.4843 49.2966C82.5107 49.2762 82.5431 49.2651 82.5764 49.2651C82.6098 49.2651 82.6422 49.2762 82.6686 49.2966C82.695 49.317 82.7138 49.3455 82.7222 49.3778C83.0941 50.859 83.5364 51.3034 85.0188 51.6749C85.0511 51.6833 85.0796 51.7022 85.1 51.7286C85.1204 51.7549 85.1315 51.7873 85.1315 51.8206C85.1315 51.854 85.1204 51.8863 85.1 51.9127C85.0796 51.9391 85.0511 51.9579 85.0188 51.9663Z" fill="white"/>
</svg>
