<svg width="24" height="24" viewBox="0 0 24 24" fill="none" xmlns="http://www.w3.org/2000/svg">
<circle cx="12" cy="12" r="10" fill="#FFE920"/>
<path fill-rule="evenodd" clip-rule="evenodd" d="M12.0001 16.0006C15.4733 16.0006 18.2889 13.777 18.2889 11.034C18.2889 8.29096 15.4733 6.06732 12.0001 6.06732C8.52698 6.06732 5.71143 8.29096 5.71143 11.034C5.71143 12.6876 6.73471 14.1525 8.30846 15.0552C8.27422 15.1455 8.24458 15.2662 8.20316 15.4349L7.94237 16.4971C7.77584 17.1754 7.69258 17.5145 7.79596 17.6899C7.87078 17.8168 7.99777 17.9043 8.14303 17.9289C8.34376 17.963 8.63093 17.7643 9.20527 17.367L9.20528 17.3669L10.3819 16.5528C10.7904 16.2702 11.0257 16.1074 11.1154 15.9518C11.4045 15.984 11.6998 16.0006 12.0001 16.0006Z" fill="#181600"/>
</svg>
