<svg width="98" height="79" viewBox="0 0 98 79" fill="none" xmlns="http://www.w3.org/2000/svg">
<g clip-path="url(#clip0_822_2991)">
<path d="M77.7095 41.6819L85.1337 6.18345H74.9186H68.7227H65.4731H58.834H58.0489H55.0325H49.4741H42.8505H18.0512L13.8377 26.1105L11.4588 36.4707L25.8642 47.4297L24.9391 51.8398H20.8188L8.89338 51.832L5.30176 67.2945H21.7051L19.3573 78.5181H36.4914H47.4839H54.4806H59.1372H61.8271H66.5071H75.4162H82.9181L87.3649 57.1444H94.7114L97.9998 41.6819H77.7095Z" fill="#201F31"/>
<path d="M73.9237 36.5484L81.1458 1.98337C81.1924 1.74225 81.0136 1.5167 80.7649 1.5167H14.4753C14.2887 1.5167 14.1333 1.64892 14.0944 1.82781L9.9508 21.4515L7.62635 31.5628C7.59525 31.7106 7.64967 31.8661 7.76628 31.9595L21.7674 42.6152C21.884 42.7085 21.9462 42.8563 21.9151 43.0041L21.1066 46.8697C21.0677 47.0486 20.9122 47.1808 20.7257 47.1808H6.09486C5.91605 47.1808 5.76057 47.2975 5.71393 47.4764L1.5237 62.1611C1.46928 62.4022 1.64809 62.6356 1.90463 62.6356H17.3439C17.5927 62.6356 17.7715 62.8611 17.7249 63.1022L15.5715 73.3847C15.5248 73.6258 15.7036 73.8513 15.9524 73.8513H78.7125C78.8991 73.8513 79.0546 73.7191 79.0934 73.5402L83.4158 52.7887C83.4547 52.6098 83.6102 52.4776 83.7967 52.4776H90.5135C90.7001 52.4776 90.8556 52.3532 90.8945 52.1665L94.0197 37.4818C94.0741 37.2407 93.8875 37.0151 93.6387 37.0151H74.3046C74.0558 37.0151 73.877 36.7896 73.9237 36.5484Z" fill="white" stroke="#201F31" stroke-width="2.29651" stroke-miterlimit="10"/>
<path d="M24.0297 7.83236L20.7257 23.2871C19.855 27.3549 21.5109 29.2061 24.7527 29.2061C28.2277 29.2061 29.5415 27.6272 30.4044 23.6838L33.7395 7.84014H38.8859L35.4187 24.096C34.0738 30.1705 31.2518 33.2506 24.2785 33.2506C18.3935 33.2506 14.0789 30.5205 15.6726 22.9682L18.9143 7.84014H24.0297V7.83236Z" fill="#201F31"/>
<path d="M37.3777 32.885L42.6874 7.83236H49.2798C51.0445 13.6814 54.1153 23.7771 54.5973 26.9738H54.6672C55.0404 24.096 56.0044 19.6548 56.8751 15.5481L58.5076 7.84014H63.3042L57.9945 32.8928H51.7364C50.2049 27.6194 46.7843 15.6725 46.3412 12.8491H46.2712C45.797 15.9992 44.8252 20.4948 43.8768 24.9827L42.2054 32.8928H37.3777V32.885Z" fill="#201F31"/>
<path d="M73.395 7.83236L68.0853 32.885H62.97L68.2797 7.83236H73.395Z" fill="#201F31"/>
<path d="M41.1482 56.5766H29.8836L28.461 63.3356H41.2882L39.8033 67.5357H22.5371L27.8468 42.483H44.6699L43.7681 46.6831H31.9982L30.7932 52.3843H42.0578L41.1482 56.5844V56.5766Z" fill="#201F31"/>
<path d="M50.3526 61.5933L47.2663 67.5279H41.8789L55.3592 42.4752H61.835L65.0845 67.5279H59.9381L59.1607 61.5933H50.3449H50.3526ZM58.9741 57.3933C58.3988 52.2287 58.0257 48.6664 57.9013 46.3875H57.8624C56.7118 48.8842 54.6828 52.9132 52.3506 57.3933H58.9663H58.9741Z" fill="#201F31"/>
<path d="M73.5815 46.6753H66.2661L67.1757 42.4752H86.8907L85.9812 46.6753H78.6891L74.289 67.5279H69.1736L73.5815 46.6753Z" fill="#201F31"/>
<path d="M17.2506 52.3921L9.76416 52.3843L8.77686 56.5844H9.49984H15.7968H17.2506H32.5189L33.7705 52.3921H17.2506Z" fill="#201F31"/>
</g>
<defs>
<clipPath id="clip0_822_2991">
<rect width="98" height="78.5181" fill="white"/>
</clipPath>
</defs>
</svg>
