<svg width="31" height="31" viewBox="0 0 31 31" fill="none" xmlns="http://www.w3.org/2000/svg">
<g clip-path="url(#clip0_389_1190)">
<path d="M8.15476 23.4111L8.05603 23.7341H8.39385H23.389H23.7192L23.6296 23.4163C23.5802 23.241 23.4538 23.0809 23.3052 22.9404C23.152 22.7956 22.9514 22.6496 22.717 22.5062C22.2475 22.2191 21.618 21.9278 20.8967 21.6671C19.4548 21.1459 17.6138 20.7355 15.8914 20.7355C14.1754 20.7355 12.3407 21.1427 10.9004 21.6623C10.1798 21.9223 9.55001 22.2132 9.07844 22.5008C8.84293 22.6445 8.64112 22.7908 8.48608 22.9361C8.33536 23.0774 8.20794 23.2371 8.15476 23.4111ZM6.14465 23.4841C6.14465 22.7452 6.51292 22.0794 7.157 21.4851C7.80278 20.8892 8.70902 20.3822 9.73483 19.9713C11.7869 19.1495 14.2545 18.7368 15.8914 18.7368C17.5284 18.7368 19.996 19.1495 22.048 19.9713C23.0738 20.3822 23.9801 20.8892 24.6259 21.4851C25.2699 22.0794 25.6382 22.7452 25.6382 23.4841V25.7328H6.14465V23.4841ZM20.6398 10.9908C20.6398 13.6137 18.515 15.7382 15.8914 15.7382C13.2678 15.7382 11.143 13.6137 11.143 10.9908C11.143 8.36795 13.2678 6.24353 15.8914 6.24353C18.515 6.24353 20.6398 8.36795 20.6398 10.9908ZM18.6406 10.9908C18.6406 9.47846 17.404 8.24219 15.8914 8.24219C14.3789 8.24219 13.1422 9.47846 13.1422 10.9908C13.1422 12.5032 14.3789 13.7395 15.8914 13.7395C17.404 13.7395 18.6406 12.5032 18.6406 10.9908Z" fill="#BDBDBD" stroke="white" stroke-width="0.5"/>
</g>
<defs>
<clipPath id="clip0_389_1190">
<rect width="29.9903" height="29.9839" fill="white" transform="translate(0.89624 0.996216)"/>
</clipPath>
</defs>
</svg>
