<svg width="76" height="87" viewBox="0 0 76 87" fill="none" xmlns="http://www.w3.org/2000/svg">
<g clip-path="url(#clip0_1269_6358)">
<path d="M75.3001 78.25L71.0501 47.55C70.8601 46.25 70.1301 45.08 69.0201 44.34C68.2601 43.84 67.3801 43.57 66.4601 43.57C66.0701 43.57 65.6801 43.62 65.3001 43.72C65.2601 43.72 61.5301 44.68 57.9401 44.68C57.1601 44.68 56.4501 44.63 55.8201 44.54C53.7501 44.24 52.4301 43.08 49.8601 40.69C48.7901 39.69 47.5701 38.56 46.1101 37.37C44.4001 36 42.5301 34.93 40.5401 34.13L41.7001 32.46C43.9001 31.87 45.8601 30.53 47.1901 28.61C47.6301 27.97 48.0001 27.27 48.2701 26.55C48.3501 26.34 48.4201 26.12 48.4901 25.9L49.6401 24.2C50.2901 23.68 50.8701 23.09 51.3701 22.41L51.4401 22.34L51.6201 22.08C52.3501 21 52.8601 19.79 53.1101 18.54C53.6501 18.19 54.1501 17.78 54.6201 17.33C58.4501 13.53 58.4801 7.31998 54.6801 3.47998C54.2501 3.04998 53.7801 2.65998 53.2901 2.31998C51.6601 1.18998 49.7601 0.599976 47.7901 0.599976C47.2101 0.599976 46.6201 0.649976 46.0401 0.759976C43.4901 1.22998 41.2801 2.65998 39.8001 4.78998C39.4201 5.34998 39.0901 5.94998 38.8301 6.56998C38.5801 7.15998 38.4001 7.76998 38.2701 8.39998C37.1401 9.12998 36.1701 10.1 35.4201 11.25C34.7201 12.33 34.2501 13.53 34.0101 14.78C33.5101 15.1 33.0401 15.46 32.6001 15.86C31.1501 17.2 30.1501 18.92 29.7101 20.84C29.4701 21.88 29.4101 22.93 29.5001 23.95L22.9701 33.39C19.7501 34.32 16.7001 35.87 14.0401 37.96C13.0001 38.79 11.5101 40.09 10.0801 41.66C10.0501 41.69 10.0301 41.72 10.0001 41.75C7.37006 44.64 5.00006 48.43 6.15006 51.93C6.52006 53.09 7.20006 54.1 8.10006 54.9L3.80006 61.12C3.51006 61.54 3.29006 62 3.16006 62.48L0.770061 70.9C0.230061 72.79 0.95006 74.81 2.57006 75.96C3.35006 76.51 4.27006 76.8 5.23006 76.8C6.19006 76.8 7.14006 76.5 7.92006 75.94L14.6001 71.18C15.1001 71.33 15.6201 71.42 16.1401 71.48C17.6901 73.01 19.8101 73.91 22.0501 73.91C22.1801 73.91 22.3101 73.89 22.4401 73.88C23.9101 75.06 25.7501 75.75 27.6901 75.75C28.8901 75.75 30.0701 75.48 31.1701 74.99C31.5401 75.34 31.9301 75.7 32.3401 76.04C35.3401 78.51 40.0401 79.75 43.1701 80.33C45.0301 83.22 48.4701 85.73 53.7001 85.73C54.5101 85.73 55.3601 85.67 56.2201 85.55L71.3501 83.48C72.5701 83.31 73.6501 82.67 74.4001 81.69C75.1401 80.71 75.4601 79.49 75.3001 78.26V78.25Z" fill="#F15729" stroke="#181818" stroke-width="1.2" stroke-miterlimit="10"/>
<path d="M13.38 52.83C13.04 52.83 12.7 52.79 12.37 52.72C11.18 52.45 10.28 51.7 9.96 50.72C9.19 48.37 12.83 44.08 16.55 41.1C19.18 39.03 22.3 37.57 25.57 36.87C25.91 36.79 26.24 37.01 26.32 37.35C26.39 37.69 26.18 38.02 25.84 38.1C22.76 38.76 19.82 40.13 17.35 42.08C13.48 45.19 10.71 48.9 11.18 50.33C11.36 50.89 11.92 51.32 12.67 51.5C13.61 51.71 15 51.54 16.08 50.4C16.32 50.15 16.72 50.14 16.97 50.38C17.22 50.62 17.23 51.02 16.99 51.27C16.03 52.28 14.72 52.84 13.4 52.85L13.38 52.83Z" fill="#181818"/>
<path d="M16.95 67.52C15.43 67.52 13.99 66.74 13.18 65.36C13.01 65.06 13.11 64.67 13.41 64.5C13.71 64.33 14.1 64.43 14.27 64.73C15.14 66.21 17.05 66.72 18.53 65.85C19.71 65.03 20.71 64 21.49 62.79C21.68 62.5 22.07 62.41 22.36 62.6C22.65 62.79 22.74 63.18 22.55 63.47C21.68 64.82 20.57 65.96 19.25 66.88C18.52 67.31 17.73 67.51 16.95 67.51V67.52Z" fill="#181818"/>
<path d="M22.05 69.9C20.54 69.9 19.07 69.12 18.26 67.73C18.09 67.43 18.19 67.04 18.49 66.87C18.79 66.7 19.18 66.8 19.35 67.1C20.21 68.58 22.12 69.09 23.61 68.22C24.87 67.33 25.93 66.21 26.76 64.9C26.95 64.61 27.33 64.52 27.63 64.7C27.92 64.89 28.01 65.27 27.83 65.57C26.91 67.02 25.73 68.26 24.33 69.26C24.31 69.27 24.26 69.31 24.24 69.32C23.55 69.72 22.8 69.91 22.06 69.91L22.05 69.9Z" fill="#181818"/>
<path d="M47.94 19.6C48.73 18.43 49.03 16.99 48.76 15.6C49.79 15.41 50.74 14.92 51.48 14.18C53.58 12.1 53.59 8.72002 51.52 6.62002C51.29 6.38002 51.03 6.17002 50.76 5.98002C48.37 4.33002 45.1 4.93002 43.45 7.31002C43.24 7.61002 43.06 7.94002 42.92 8.28002C42.51 9.25002 42.4 10.32 42.6 11.35C41.18 11.61 39.93 12.44 39.14 13.66C38.35 14.88 38.09 16.37 38.43 17.78C37.38 17.93 36.39 18.4 35.61 19.12C34.83 19.84 34.28 20.79 34.04 21.83C33.55 23.97 34.41 26.18 36.21 27.43C38.6 29.08 41.87 28.48 43.52 26.1C43.76 25.75 43.96 25.38 44.11 24.98C44.49 23.98 44.57 22.89 44.32 21.84C45.79 21.63 47.1 20.81 47.93 19.59L47.94 19.6Z" fill="#181818"/>
<path d="M39.2 28.81C38.08 28.81 36.95 28.48 35.97 27.8C34.01 26.44 33.08 24.06 33.61 21.74C33.87 20.61 34.46 19.59 35.31 18.8C36.05 18.12 36.94 17.65 37.91 17.43C37.7 16.04 38 14.61 38.77 13.42C39.54 12.23 40.74 11.37 42.1 11.01C41.99 10.02 42.12 9.03002 42.51 8.11002C42.66 7.74002 42.86 7.39002 43.08 7.06002C43.95 5.81002 45.25 4.97002 46.74 4.69002C48.24 4.42002 49.75 4.74002 51 5.61002C51.29 5.81002 51.57 6.05002 51.82 6.30002C54.07 8.57002 54.05 12.24 51.78 14.49C51.07 15.19 50.2 15.68 49.25 15.93C49.41 17.31 49.08 18.68 48.29 19.84C48.28 19.86 48.26 19.88 48.25 19.89C47.44 21.06 46.21 21.88 44.84 22.19C44.99 23.18 44.88 24.19 44.52 25.13C44.36 25.56 44.14 25.97 43.88 26.34C42.78 27.94 40.99 28.8 39.18 28.8L39.2 28.81ZM47.78 5.50002C46.25 5.50002 44.75 6.22002 43.82 7.57002C43.63 7.85002 43.47 8.14002 43.34 8.45002C42.97 9.34002 42.87 10.32 43.05 11.27C43.07 11.39 43.05 11.51 42.98 11.6C42.91 11.7 42.81 11.77 42.69 11.79C41.39 12.03 40.24 12.8 39.52 13.9C38.8 15.01 38.56 16.39 38.87 17.68C38.9 17.8 38.87 17.93 38.8 18.03C38.73 18.13 38.62 18.2 38.5 18.22C37.53 18.36 36.64 18.78 35.92 19.45C35.2 20.12 34.7 20.98 34.48 21.93C34.03 23.9 34.81 25.92 36.47 27.06C38.65 28.57 41.66 28.02 43.16 25.84C43.38 25.52 43.56 25.18 43.7 24.81C44.05 23.89 44.12 22.89 43.89 21.93C43.86 21.81 43.89 21.68 43.96 21.58C44.03 21.48 44.14 21.41 44.26 21.39C45.6 21.2 46.8 20.45 47.56 19.33C47.57 19.31 47.59 19.29 47.6 19.28C48.3 18.21 48.56 16.93 48.32 15.67C48.3 15.55 48.32 15.43 48.39 15.34C48.46 15.25 48.56 15.17 48.68 15.15C49.62 14.98 50.49 14.53 51.17 13.85C53.09 11.95 53.1 8.84002 51.2 6.92002C50.99 6.70002 50.75 6.51002 50.5 6.34002C49.67 5.76002 48.71 5.49002 47.77 5.49002L47.78 5.50002Z" fill="black"/>
<path d="M53.7001 81.71C48.0901 81.71 46.2801 77.99 45.8101 76.69C44.1501 76.47 37.9801 75.5 34.8801 72.94C33.7901 72.04 32.8401 71 31.9101 69.99C29.8601 67.75 27.7301 65.44 23.8501 64.25C17.8401 62.42 14.6801 61.37 14.4001 59.32C14.2201 58.03 14.6801 56.83 15.6801 55.93C17.4801 54.33 20.7501 53.9 24.2201 54.8C25.6201 55.17 27.0501 55.64 28.4301 56.09C32.1601 57.32 35.6701 58.49 37.2301 57.07C38.7101 55.73 39.4201 53.86 39.1801 51.95C38.9101 49.79 37.4701 47.86 35.2201 46.66C32.7201 45.32 29.9701 45.71 27.3601 46.34C27.0201 46.42 26.6801 46.21 26.6001 45.88C26.5201 45.54 26.7301 45.2 27.0601 45.12C29.7701 44.47 32.9201 44.01 35.8101 45.56C38.4301 46.96 40.1101 49.24 40.4301 51.81C40.7201 54.14 39.8601 56.4 38.0701 58.02C35.9701 59.93 32.1101 58.65 28.0201 57.3C26.6601 56.85 25.2501 56.38 23.8901 56.03C20.8701 55.24 17.9701 55.58 16.5101 56.88C15.8201 57.5 15.5201 58.28 15.6401 59.15C15.8101 60.4 19.1401 61.5 24.2101 63.04C28.4201 64.33 30.6701 66.77 32.8301 69.13C33.7701 70.15 34.6501 71.12 35.6701 71.96C38.9101 74.63 46.2701 75.48 46.3501 75.48C46.6201 75.51 46.8401 75.71 46.9001 75.97C46.9501 76.19 48.1801 81.32 55.5001 80.31L69.9901 78.33L65.9201 48.96C64.1301 49.37 59.2001 50.33 55.0501 49.73C51.2501 49.18 48.9401 47.02 46.2701 44.52C45.2101 43.53 44.1201 42.51 42.8101 41.46C40.0501 39.24 36.7101 37.99 33.1701 37.85C32.8201 37.84 32.5501 37.54 32.5701 37.19C32.5801 36.84 32.8701 36.57 33.2201 36.59C37.0301 36.75 40.6201 38.09 43.6001 40.48C44.9401 41.56 46.1001 42.65 47.1301 43.6C49.7501 46.05 51.8301 47.99 55.2301 48.48C60.0401 49.18 66.2301 47.59 66.2901 47.57C66.4601 47.53 66.6501 47.56 66.8001 47.66C66.9501 47.76 67.0501 47.92 67.0701 48.1L71.3201 78.78C71.3401 78.95 71.3001 79.11 71.2001 79.25C71.1001 79.38 70.9501 79.47 70.7801 79.49L55.6601 81.56C54.9501 81.66 54.3001 81.7 53.6801 81.7L53.7001 81.71Z" fill="#181818"/>
<path d="M20.5501 55.42C20.4301 55.42 20.3001 55.38 20.1901 55.31C19.9001 55.11 19.8301 54.72 20.0301 54.43L38.3101 28.11C38.5101 27.82 38.9 27.75 39.1901 27.95C39.4801 28.15 39.5501 28.54 39.35 28.83L21.0701 55.15C20.9501 55.33 20.7501 55.42 20.5501 55.42Z" fill="#181818"/>
<path d="M5.23003 72.8C5.10003 72.8 4.98003 72.76 4.87003 72.68C4.65003 72.53 4.55003 72.25 4.63003 71.99L7.02003 63.57C7.04003 63.5 7.07003 63.44 7.11003 63.38L33.82 24.76C34.02 24.47 34.41 24.4 34.7 24.6C34.99 24.8 35.06 25.19 34.86 25.48L8.21003 64.02L6.34003 70.61L11.92 66.63L15.96 60.8C16.16 60.51 16.55 60.44 16.84 60.64C17.13 60.84 17.2 61.23 17 61.52L12.9 67.44C12.86 67.5 12.81 67.55 12.75 67.59L5.62003 72.67C5.51003 72.75 5.38003 72.79 5.25003 72.79L5.23003 72.8Z" fill="#181818"/>
<path d="M26.56 56.77C26.45 56.77 26.34 56.74 26.23 56.68C25.93 56.5 25.84 56.11 26.02 55.82C26.72 54.67 27.51 53.57 28.38 52.55C30.74 49.67 34.24 47.87 37.97 47.63C38.33 47.61 38.62 47.87 38.64 48.22C38.66 48.57 38.4 48.87 38.05 48.89C34.67 49.11 31.5 50.74 29.35 53.36C28.52 54.34 27.76 55.38 27.1 56.48C26.98 56.68 26.77 56.78 26.56 56.78V56.77Z" fill="#181818"/>
<path d="M32.16 58.41C32.02 58.41 31.88 58.36 31.76 58.27C31.49 58.05 31.45 57.65 31.68 57.38C33.72 54.91 36.59 53.23 39.75 52.66C40.09 52.6 40.42 52.82 40.48 53.17C40.54 53.51 40.32 53.84 39.97 53.9C37.1 54.42 34.5 55.94 32.65 58.19C32.53 58.34 32.35 58.42 32.16 58.42V58.41Z" fill="#181818"/>
<path d="M27.69 71.74C26.17 71.74 24.72 70.96 23.91 69.58C23.74 69.28 23.84 68.89 24.14 68.72C24.44 68.54 24.83 68.65 25 68.95C25.86 70.44 27.77 70.94 29.26 70.08C29.97 69.63 30.58 69.09 31.09 68.46C31.31 68.19 31.71 68.15 31.98 68.37C32.25 68.59 32.29 68.99 32.07 69.26C31.47 69.99 30.76 70.62 29.96 71.13C29.24 71.55 28.46 71.75 27.69 71.75V71.74Z" fill="#181818"/>
<path d="M20.11 62.66C19.97 62.66 19.83 62.65 19.7 62.62C19.46 62.57 19.3 62.34 19.35 62.1C19.4 61.86 19.63 61.7 19.87 61.75C19.96 61.77 20.06 61.77 20.14 61.77C20.87 61.75 21.44 61.15 21.42 60.42C21.42 59.67 20.52 58.26 18.55 57.58C17.72 57.3 17.03 57.3 16.49 57.58C15.76 57.97 15.53 58.78 15.53 58.79C15.47 59.03 15.22 59.17 14.99 59.1C14.75 59.04 14.61 58.8 14.68 58.56C14.69 58.51 15 57.38 16.08 56.8C16.84 56.39 17.78 56.37 18.86 56.74C21.13 57.52 22.35 59.22 22.33 60.41C22.36 61.61 21.39 62.62 20.18 62.65C20.16 62.65 20.14 62.65 20.13 62.65L20.11 62.66Z" fill="#181818"/>
<path d="M11.3201 50.35C11.0501 50.35 10.7801 50.32 10.5101 50.26C10.1701 50.18 9.96007 49.84 10.0401 49.5C10.1201 49.16 10.4601 48.95 10.8001 49.03C11.7201 49.24 12.7001 48.87 13.2401 48.08C14.3101 46.73 13.0701 45.26 13.0101 45.2C12.7801 44.94 12.8101 44.54 13.0701 44.31C13.3301 44.08 13.7301 44.11 13.9601 44.37C14.6501 45.16 15.6101 47.1 14.2501 48.82C13.6001 49.77 12.4801 50.34 11.3201 50.34V50.35Z" fill="#181818"/>
<path d="M12.47 67.7C11.38 67.68 10.31 67.39 9.35999 66.86C8.23999 66.21 7.42999 65.13 7.11999 63.88C7.03999 63.54 7.23999 63.2 7.57999 63.12C7.90999 63.04 8.25999 63.24 8.33999 63.58C8.56999 64.5 9.16999 65.29 9.98999 65.77C10.75 66.2 11.61 66.43 12.49 66.44C12.84 66.44 13.12 66.73 13.11 67.08C13.11 67.42 12.82 67.7 12.48 67.7H12.47Z" fill="#181818"/>
<path d="M9.81775 13.1394C9.84047 12.9535 10.1101 12.9535 10.1328 13.1394L10.4269 15.5459C10.7453 18.1518 12.7988 20.2052 15.4047 20.5237L17.8111 20.8177C17.997 20.8405 17.997 21.1101 17.8111 21.1328L15.4046 21.4269C12.7988 21.7453 10.7453 23.7988 10.4269 26.4047L10.1328 28.8111C10.1101 28.997 9.84047 28.997 9.81775 28.8111L9.52368 26.4046C9.20523 23.7988 7.15178 21.7453 4.54589 21.4269L2.13944 21.1328C1.95352 21.1101 1.95352 20.8405 2.13944 20.8177L4.54589 20.5237C7.15179 20.2052 9.20523 18.1518 9.52368 15.5459L9.81775 13.1394Z" fill="#FFD568" stroke="black" stroke-width="1.26"/>
</g>
<defs>
<clipPath id="clip0_1269_6358">
<rect width="75.94" height="86.31" fill="white"/>
</clipPath>
</defs>
</svg>
