<svg width="18" height="23" viewBox="0 0 18 23" fill="none" xmlns="http://www.w3.org/2000/svg">
<path d="M3.85595 15.4709C2.27431 13.1961 1.21154 10.8188 1.33349 8.41253C1.79795 4.15989 5.22057 0.908252 9.31467 0.908252C13.4066 0.908252 16.8278 4.15649 17.2951 8.40586C17.3787 11.0938 16.3783 13.4184 14.8681 15.5731C13.5992 17.3835 12.0064 19.0274 10.4323 20.652C10.1111 20.9835 9.79073 21.3142 9.47401 21.6453C9.39108 21.732 9.25033 21.7308 9.16912 21.6438C8.95497 21.4144 8.73553 21.1809 8.51235 20.9435C6.9661 19.2983 5.2406 17.4625 3.85595 15.4709Z" stroke="#BDBDBD" stroke-width="1.4"/>
<path d="M11.9407 8.77316C11.9407 10.3543 10.7308 11.5748 9.31203 11.5748C7.89328 11.5748 6.6834 10.3543 6.6834 8.77316C6.6834 7.19199 7.89328 5.97148 9.31203 5.97148C10.7308 5.97148 11.9407 7.19199 11.9407 8.77316Z" fill="white" stroke="#BDBDBD" stroke-width="1.4"/>
</svg>
