<svg width="34" height="34" viewBox="0 0 34 34" fill="none" xmlns="http://www.w3.org/2000/svg">
<path d="M15.1632 8.48661C15.1575 8.2912 15.4372 8.24321 15.4901 8.43053L16.1748 10.8551C16.9162 13.4806 19.3705 15.2287 22.1243 15.0926L24.6673 14.9669C24.8638 14.9572 24.9063 15.2347 24.717 15.2911L22.2668 16.0222C19.6134 16.8138 17.8069 19.293 17.8875 22.0319L17.962 24.5611C17.9678 24.7566 17.6881 24.8045 17.6352 24.6172L16.9505 22.1926C16.2091 19.5671 13.7548 17.8191 11.001 17.9552L8.45793 18.0809C8.26145 18.0906 8.21892 17.8131 8.40823 17.7566L10.8585 17.0256C13.5118 16.2339 15.3184 13.7548 15.2377 11.0159L15.1632 8.48661Z" fill="#FD5422"/>
<path d="M15.8689 8.31718C15.6907 7.68635 14.7506 7.84763 14.77 8.50572L14.8445 11.035C14.9198 13.593 13.2325 15.9096 10.7526 16.6495L8.30233 17.3806C7.66571 17.5705 7.80898 18.5056 8.46972 18.4729L11.0128 18.3472C13.5866 18.22 15.8792 19.8537 16.5717 22.3059L17.2564 24.7304C17.4345 25.3613 18.3746 25.2 18.3552 24.5419L18.2807 22.0126C18.2054 19.4546 19.8927 17.138 22.3726 16.3981L24.8229 15.667C25.4595 15.4771 25.3162 14.542 24.6555 14.5747L22.1125 14.7004C19.5387 14.8276 17.246 13.1939 16.5535 10.7417L15.8689 8.31718ZM15.6309 10.9966L15.6108 10.3125L15.796 10.9683C16.5863 13.7672 19.2023 15.6296 22.1361 15.4846L22.8148 15.4511L22.1609 15.6462C19.3341 16.4896 17.4083 19.1312 17.4943 22.051L17.5145 22.7351L17.3293 22.0793C16.5389 19.2804 13.9229 17.418 10.9891 17.563L10.3104 17.5966L10.9644 17.4014C13.7912 16.5581 15.7169 13.9164 15.6309 10.9966Z" fill="#191919" stroke="black" stroke-width="0.2"/>
</svg>
