<svg width="22" height="22" viewBox="0 0 22 22" fill="none" xmlns="http://www.w3.org/2000/svg">
<path d="M21.0089 17.3287V20.3574C21.0089 20.6086 20.8053 20.8121 20.5542 20.8121H17.3092H14.4635C14.2124 20.8121 14.0088 20.6086 14.0088 20.3574V16.002C14.0088 15.7509 13.8052 15.5474 13.5541 15.5474H8.67223C8.42112 15.5474 8.21755 15.7509 8.21755 16.002V20.3574C8.21755 20.6086 8.01399 20.8121 7.76288 20.8121H4.68659H1.67215C1.42103 20.8121 1.21747 20.6086 1.21747 20.3574V10.071C1.21747 9.81335 1.32679 9.56777 1.51827 9.39532L10.8089 1.02806C10.9818 0.872303 11.2445 0.872303 11.4174 1.02806L20.7081 9.39532C20.8995 9.56776 21.0089 9.81335 21.0089 10.071V14.9027V17.3287Z" stroke="#BDBDBD" stroke-width="1.4" stroke-miterlimit="10"/>
</svg>
